<svg width="27" height="10" viewBox="0 0 27 10" fill="none" xmlns="http://www.w3.org/2000/svg">
<path d="M18.742 8.30309C18.6002 7.75932 18.4002 7.1385 18.5247 7.07283C19.326 6.6254 20.1688 6.25677 21.0412 5.97211C14.1923 6.08803 7.35099 6.24728 0.553029 6.39889C0.421039 6.4222 0.243452 4.13464 0.155787 4.15013C7.62588 3.96817 15.1476 3.81974 22.622 3.67967C21.8606 3.20473 21.0615 2.77505 20.2986 2.29732C20.145 2.19242 20.1262 1.32119 20.0963 1.15177C20.0663 0.982349 20.0517 0.111411 19.897 0.00667659L24.444 2.74636C24.8468 2.97991 25.2575 3.25779 25.6597 3.49349C25.9168 3.66647 26.2976 3.77493 26.4453 4.09927C26.6179 4.69366 26.7259 5.30494 26.7673 5.9225L26.8423 6.34704C26.8348 6.30468 26.7915 6.31234 26.784 6.26998C26.7486 6.58097 26.5367 6.6641 26.0708 6.83273C25.2686 7.11961 24.4523 7.36552 23.6251 7.5695C22.1523 7.89933 20.7235 8.40162 19.3684 9.06598C19.3692 9.07156 19.369 9.07726 19.3676 9.08275C19.3663 9.08823 19.3639 9.0934 19.3605 9.09795C19.3572 9.10251 19.353 9.10636 19.3481 9.10928C19.3433 9.11221 19.3379 9.11415 19.3323 9.115C19.2088 9.1805 19.041 9.25383 18.9166 9.32048L18.742 8.30309Z" fill="#FF3F31"/>
</svg>
