<svg width="30" height="11" viewBox="0 0 30 11" fill="none" xmlns="http://www.w3.org/2000/svg">
<path d="M20.8979 9.34413C20.7404 8.74016 20.5181 8.05114 20.6564 7.97695C21.5506 7.47939 22.4908 7.0694 23.464 6.75271C15.8258 6.88615 8.19488 7.06605 0.613714 7.24021C0.467934 7.26597 0.275474 4.75046 0.17245 4.74225C8.5045 4.53499 16.894 4.36533 25.2332 4.20454C24.3826 3.67323 23.4925 3.1997 22.6431 2.66921C22.4722 2.55312 22.4517 1.58571 22.4183 1.39659C22.3848 1.20747 22.3641 0.23907 22.1925 0.124141L27.2687 3.16341C27.721 3.42378 28.1757 3.73248 28.626 3.99321C28.9119 4.18547 29.3352 4.3047 29.5005 4.66554C29.6926 5.32603 29.8126 6.00537 29.8584 6.69169L29.9416 7.16252C29.9332 7.11524 29.885 7.12376 29.8759 7.07254C29.8357 7.41992 29.6008 7.51018 29.0787 7.69991C28.1831 8.05213 27.2626 8.26349 26.3504 8.52213C24.708 8.88929 23.1144 9.44796 21.6023 10.1867C21.6036 10.193 21.6035 10.1996 21.6022 10.2059C21.6009 10.2122 21.5983 10.2182 21.5946 10.2235C21.5909 10.2289 21.5861 10.2334 21.5806 10.2368C21.5751 10.2402 21.569 10.2425 21.5626 10.2435C21.4242 10.3167 21.2382 10.4023 21.095 10.4713L20.8979 9.34413Z" fill="#007189"/>
</svg>
